<svg width="24" height="24" viewBox="0 0 24 24" fill="none" xmlns="http://www.w3.org/2000/svg">
  <path d="M9 5C9 7.761 11.239 10 14 10C15.657 10 17 8.657 17 7C17 5.343 15.657 4 14 4C12.681 4 11.522 4.842 11.11 6.03C10.172 5.402 9 5 9 5Z" stroke="currentColor" stroke-width="1.6" stroke-linecap="round" stroke-linejoin="round"/>
  <path d="M12 10C12 12.761 9.761 15 7 15C5.343 15 4 13.657 4 12C4 10.343 5.343 9 7 9C8.319 9 9.478 9.842 9.89 11.03C10.828 10.402 12 10 12 10Z" stroke="currentColor" stroke-width="1.6" stroke-linecap="round" stroke-linejoin="round"/>
  <path d="M12 10V21" stroke="currentColor" stroke-width="1.6" stroke-linecap="round"/>
  <path d="M12 16C13.657 16 15 17.343 15 19" stroke="currentColor" stroke-width="1.6" stroke-linecap="round"/>
  <path d="M12 18C10.343 18 9 19.343 9 21" stroke="currentColor" stroke-width="1.6" stroke-linecap="round"/>
</svg>
