<svg width="24" height="24" viewBox="0 0 24 24" fill="none" xmlns="http://www.w3.org/2000/svg">
  <path d="M19.4 12.94C19.46 12.64 19.5 12.33 19.5 12C19.5 11.67 19.46 11.36 19.4 11.06L21 9.74L19.26 6.76L17.24 7.28C16.66 6.86 16 6.52 15.26 6.3L14.9 4H9.1L8.74 6.3C8 6.52 7.34 6.86 6.76 7.28L4.74 6.76L3 9.74L4.6 11.06C4.54 11.36 4.5 11.67 4.5 12C4.5 12.33 4.54 12.64 4.6 12.94L3 14.26L4.74 17.24L6.76 16.72C7.34 17.14 8 17.48 8.74 17.7L9.1 20H14.9L15.26 17.7C16 17.48 16.66 17.14 17.24 16.72L19.26 17.24L21 14.26L19.4 12.94Z" stroke="currentColor" stroke-width="1.6" stroke-linejoin="round"/>
  <circle cx="12" cy="12" r="3" stroke="currentColor" stroke-width="1.6"/>
</svg>
