<svg width="24" height="24" viewBox="0 0 24 24" fill="none" xmlns="http://www.w3.org/2000/svg">
<path d="M2.99995 11L20.2 5.99995L19.4 3.39995C19.1 2.39995 18 1.79995 16.9 2.09995L3.39995 6.09995C2.39995 6.39995 1.79995 7.49995 2.09995 8.59995L2.99995 11ZM2.99995 11H21V19C21 19.5304 20.7892 20.0391 20.4142 20.4142C20.0391 20.7892 19.5304 21 19 21H4.99995C4.46952 21 3.96081 20.7892 3.58574 20.4142C3.21067 20.0391 2.99995 19.5304 2.99995 19V11ZM6.19995 5.29995L9.29995 9.19995M12.4 3.39995L15.5 7.39995" stroke="#6B2E11" stroke-width="2" stroke-linecap="round" stroke-linejoin="round"/>
</svg>
