<svg width="44" height="42" viewBox="0 0 44 42" fill="none" xmlns="http://www.w3.org/2000/svg">
<path d="M20.6612 1.6086C20.7517 1.42587 20.8914 1.27206 21.0646 1.16452C21.2378 1.05698 21.4376 1 21.6415 1C21.8454 1 22.0452 1.05698 22.2184 1.16452C22.3917 1.27206 22.5314 1.42587 22.6218 1.6086L27.3891 11.265C27.7032 11.9006 28.1668 12.4505 28.7401 12.8675C29.3135 13.2844 29.9795 13.5561 30.6809 13.659L41.3424 15.2192C41.5444 15.2485 41.7342 15.3337 41.8903 15.4652C42.0464 15.5967 42.1626 15.7693 42.2257 15.9634C42.2888 16.1576 42.2964 16.3655 42.2475 16.5636C42.1986 16.7618 42.0953 16.9424 41.9491 17.0849L34.2388 24.5929C33.7304 25.0884 33.3499 25.7001 33.1302 26.3753C32.9106 27.0504 32.8583 27.7688 32.9779 28.4687L34.7981 39.0765C34.8338 39.2784 34.812 39.4863 34.7352 39.6764C34.6584 39.8666 34.5297 40.0313 34.3638 40.1517C34.1979 40.2722 34.0015 40.3437 33.7969 40.3579C33.5924 40.3722 33.3879 40.3286 33.2069 40.2322L23.6764 35.2214C23.0484 34.8916 22.3498 34.7194 21.6405 34.7194C20.9312 34.7194 20.2325 34.8916 19.6046 35.2214L10.0761 40.2322C9.89516 40.328 9.69099 40.3711 9.48678 40.3566C9.28258 40.3421 9.08655 40.2706 8.92098 40.1501C8.75542 40.0297 8.62697 39.8653 8.55025 39.6755C8.47353 39.4857 8.4516 39.2782 8.48698 39.0765L10.3052 28.4708C10.4253 27.7706 10.3732 27.0517 10.1536 26.3761C9.93388 25.7005 9.55315 25.0885 9.0442 24.5929L1.33392 17.0869C1.18655 16.9446 1.08212 16.7638 1.03253 16.565C0.982935 16.3662 0.990169 16.1575 1.05341 15.9626C1.11665 15.7677 1.23334 15.5945 1.39021 15.4627C1.54708 15.3309 1.73781 15.2458 1.94067 15.2172L12.6001 13.659C13.3023 13.5569 13.9692 13.2856 14.5433 12.8686C15.1175 12.4515 15.5816 11.9012 15.896 11.265L20.6612 1.6086Z" fill="#FDB022" stroke="#FDB022" stroke-width="2" stroke-linecap="round" stroke-linejoin="round"/>
</svg>
