<svg width="16" height="20" viewBox="0 0 16 20" fill="none" xmlns="http://www.w3.org/2000/svg">
<path d="M14.835 7.83496C14.835 12.2038 9.98834 16.7538 8.36084 18.1591C8.20922 18.2731 8.02466 18.3347 7.83496 18.3347C7.64526 18.3347 7.4607 18.2731 7.30909 18.1591C5.68159 16.7538 0.834961 12.2038 0.834961 7.83496C0.834961 5.97845 1.57246 4.19797 2.88521 2.88521C4.19797 1.57246 5.97845 0.834961 7.83496 0.834961C9.69148 0.834961 11.472 1.57246 12.7847 2.88521C14.0975 4.19797 14.835 5.97845 14.835 7.83496Z" stroke="#535862" stroke-width="1.67" stroke-linecap="round" stroke-linejoin="round"/>
<path d="M7.83496 10.46C9.28471 10.46 10.46 9.28471 10.46 7.83496C10.46 6.38521 9.28471 5.20996 7.83496 5.20996C6.38521 5.20996 5.20996 6.38521 5.20996 7.83496C5.20996 9.28471 6.38521 10.46 7.83496 10.46Z" stroke="#535862" stroke-width="1.67" stroke-linecap="round" stroke-linejoin="round"/>
</svg>
