<svg width="153" height="20" viewBox="0 0 153 20" fill="none" xmlns="http://www.w3.org/2000/svg">
<path fill-rule="evenodd" clip-rule="evenodd" d="M80.4917 9.74381C80.4917 15.5634 84.9498 19.4876 90.2355 19.4876C95.5212 19.4876 100.006 15.5634 100.006 9.74381C100.006 3.92422 95.5212 0 90.2355 0C84.9498 0 80.4917 3.92422 80.4917 9.74381ZM92.6282 2.3136L86.8711 10.4557H90.653L87.1779 16.8848L94.1011 9.00968H89.7631L92.6282 2.3136Z" fill="#FEEDD6"/>
<path d="M34.3671 6.63499C34.2188 6.55261 34.0366 6.65983 34.0366 6.82945V8.29791C34.0366 8.46754 34.2188 8.57476 34.3671 8.49238L35.6887 7.75815C35.8413 7.67339 35.8413 7.45398 35.6887 7.36922L34.3671 6.63499Z" fill="#FEEDD6"/>
<path fill-rule="evenodd" clip-rule="evenodd" d="M35.1845 12.9472L39.082 19.2207H42.9795L38.5481 12.3333C40.7371 11.3989 42.0452 9.42346 42.0452 6.70054C42.0452 2.82971 39.3757 0.266953 35.3447 0.266953H28.6975V19.2207H32.3548V12.9472H35.1845ZM31.5181 4.53821C31.5181 4.02219 31.9364 3.60388 32.4524 3.60388H32.887L33.7288 5.04697H31.5181V4.53821ZM34.1409 5.04697L33.2991 3.60388H35.2857L36.1275 5.04697H34.1409ZM36.5396 5.04697L35.6978 3.60388H37.1241C37.6401 3.60388 38.0584 4.02219 38.0584 4.53821V5.04697H36.5396ZM31.5181 5.40291H38.0584V9.0839C38.0584 9.59201 37.6524 10.007 37.1444 10.018L32.4727 10.1196C31.9489 10.131 31.5181 9.70943 31.5181 9.18546V5.40291Z" fill="#FEEDD6"/>
<path fill-rule="evenodd" clip-rule="evenodd" d="M43.2809 12.2799C43.2809 16.8982 46.6979 19.4876 50.5153 19.4876C52.9713 19.4876 54.9735 18.4732 56.1214 17.0316L54.4929 15.2964C53.4785 16.1774 52.2772 16.5511 50.9158 16.5511C48.8335 16.5511 47.1784 15.5634 46.6712 13.668H57.0557C57.8299 7.55479 53.8256 5.07212 50.3018 5.07212C46.7513 5.07212 43.2809 7.60818 43.2809 12.2799ZM53.879 11.0519H46.6178C47.0716 9.04973 48.6734 8.08869 50.3285 8.08869C52.0103 8.08869 53.6654 9.07642 53.879 11.0519Z" fill="#FEEDD6"/>
<path fill-rule="evenodd" clip-rule="evenodd" d="M65.7661 19.4876C61.9487 19.4876 58.5317 16.8982 58.5317 12.2799C58.5317 7.60818 62.0021 5.07212 65.5525 5.07212C69.0763 5.07212 73.0806 7.55479 72.3065 13.668H61.922C62.4292 15.5634 64.0843 16.5511 66.1665 16.5511C67.528 16.5511 68.7293 16.1774 69.7437 15.2964L71.3721 17.0316C70.2242 18.4732 68.2221 19.4876 65.7661 19.4876ZM61.8686 11.0519H69.1297C68.9162 9.07642 67.261 8.08869 65.5792 8.08869C63.9241 8.08869 62.3224 9.04973 61.8686 11.0519Z" fill="#FEEDD6"/>
<path d="M74.4498 0.266953V19.2207H78.027V0.266953H74.4498Z" fill="#FEEDD6"/>
<path d="M106 5.33907H102.423V19.2207H106V11.6392C106 9.61033 107.121 8.27556 108.963 8.27556C110.832 8.27556 111.926 9.61033 111.926 11.6392V19.2207H115.503V11.0519C115.503 6.83401 113.101 5.07212 110.244 5.07212C108.162 5.07212 106.774 6.00646 106 7.23444V5.33907Z" fill="#FEEDD6"/>
<path d="M127.671 19.4876C122.412 19.4876 117.954 15.6435 117.954 9.74381C117.954 3.84413 122.439 0 127.778 0C130.314 0 133.437 0.907642 135.439 4.11108L132.796 5.95307C131.542 4.19117 129.753 3.4704 127.831 3.4704C124.441 3.4704 121.691 5.84628 121.691 9.74381C121.691 13.6146 124.387 16.124 127.831 16.124C130.154 16.124 132.263 15.0295 132.823 12.093H128.285V9.02303H136.374C137.228 15.5901 132.903 19.4876 127.671 19.4876Z" fill="#FEEDD6"/>
<path d="M26.6954 7.34122H6.22892L8.13273 6.00646H26.6954V7.34122Z" fill="#FEEDD6"/>
<path d="M26.6954 10.2332H0L1.85417 8.89845H26.6954V10.2332Z" fill="#FEEDD6"/>
<path d="M25.8055 13.3477H11.7905L13.7161 11.7904H25.8055V13.3477Z" fill="#FEEDD6"/>
<path fill-rule="evenodd" clip-rule="evenodd" d="M138.371 12.3244C138.371 17.0227 142.055 19.5321 145.685 19.5321C149.289 19.5321 153 17.0227 153 12.3244C153 7.62597 149.289 5.11661 145.685 5.11661C142.055 5.11661 138.371 7.62597 138.371 12.3244ZM145.685 16.302C143.683 16.302 141.895 14.807 141.895 12.3244C141.895 9.84169 143.683 8.34675 145.685 8.34675C147.688 8.34675 149.45 9.84169 149.45 12.3244C149.45 14.807 147.688 16.302 145.685 16.302Z" fill="#FEEDD6"/>
</svg>
