<svg width="50" height="50" viewBox="0 0 50 50" fill="none" xmlns="http://www.w3.org/2000/svg">
<path d="M23.7843 4.73653C23.8747 4.5538 24.0144 4.39999 24.1876 4.29245C24.3609 4.18491 24.5607 4.12793 24.7646 4.12793C24.9684 4.12793 25.1683 4.18491 25.3415 4.29245C25.5147 4.39999 25.6544 4.5538 25.7449 4.73653L30.5122 14.393C30.8263 15.0285 31.2899 15.5784 31.8632 15.9954C32.4365 16.4124 33.1025 16.684 33.8039 16.7869L44.4654 18.3472C44.6674 18.3764 44.8572 18.4616 45.0133 18.5932C45.1694 18.7247 45.2856 18.8973 45.3487 19.0914C45.4119 19.2855 45.4194 19.4934 45.3706 19.6916C45.3217 19.8898 45.2183 20.0703 45.0722 20.2128L37.3619 27.7208C36.8534 28.2164 36.4729 28.828 36.2533 29.5032C36.0336 30.1783 35.9813 30.8968 36.1009 31.5966L37.9212 42.2045C37.9568 42.4064 37.935 42.6142 37.8582 42.8044C37.7814 42.9945 37.6527 43.1592 37.4868 43.2797C37.3209 43.4002 37.1245 43.4716 36.92 43.4858C36.7154 43.5001 36.511 43.4565 36.33 43.3602L26.7995 38.3493C26.1715 38.0196 25.4728 37.8473 24.7635 37.8473C24.0543 37.8473 23.3556 38.0196 22.7276 38.3493L13.1991 43.3602C13.0182 43.456 12.814 43.499 12.6098 43.4845C12.4056 43.47 12.2096 43.3985 12.044 43.2781C11.8785 43.1577 11.75 42.9932 11.6733 42.8034C11.5966 42.6136 11.5747 42.4061 11.61 42.2045L13.4282 31.5987C13.5483 30.8985 13.4963 30.1796 13.2766 29.504C13.0569 28.8285 12.6762 28.2165 12.1672 27.7208L4.45697 20.2149C4.3096 20.0725 4.20517 19.8917 4.15558 19.6929C4.10598 19.4941 4.11322 19.2854 4.17645 19.0905C4.23969 18.8956 4.35639 18.7224 4.51326 18.5906C4.67013 18.4589 4.86085 18.3738 5.06372 18.3451L15.7231 16.7869C16.4254 16.6848 17.0922 16.4135 17.6664 15.9965C18.2405 15.5795 18.7047 15.0292 19.019 14.393L23.7843 4.73653Z" stroke="#D5D7DA" stroke-width="2" stroke-linecap="round" stroke-linejoin="round"/>
</svg>
