<svg width="20" height="16" viewBox="0 0 20 16" fill="none" xmlns="http://www.w3.org/2000/svg">
<path fill-rule="evenodd" clip-rule="evenodd" d="M0 4C0 1.79086 1.79086 0 4 0H16C18.2091 0 20 1.79086 20 4V4.5C20 4.77614 19.7761 5 19.5 5H0.5C0.22386 5 0 4.77614 0 4.5V4ZM0.5 7C0.22386 7 0 7.2239 0 7.5V12C0 14.2091 1.79086 16 4 16H16C18.2091 16 20 14.2091 20 12V7.5C20 7.2239 19.7761 7 19.5 7H0.5ZM11 11C11 10.4477 11.4477 10 12 10H15C15.5523 10 16 10.4477 16 11C16 11.5523 15.5523 12 15 12H12C11.4477 12 11 11.5523 11 11Z" fill="white"/>
</svg>
