<svg width="688" height="88" viewBox="0 0 688 88" fill="none" xmlns="http://www.w3.org/2000/svg">
<path fill-rule="evenodd" clip-rule="evenodd" d="M361.823 43.8C361.823 69.96 381.863 87.6 405.623 87.6C429.383 87.6 449.543 69.96 449.543 43.8C449.543 17.64 429.383 0 405.623 0C381.863 0 361.823 17.64 361.823 43.8ZM416.379 10.4L390.5 47H407.5L391.879 75.9L423 40.5H403.5L416.379 10.4Z" fill="url(#paint0_linear_1_1047)"/>
<path d="M154.486 29.8254C153.819 29.4551 153 29.937 153 30.6995V37.3005C153 38.063 153.819 38.5449 154.486 38.1746L160.427 34.8742C161.112 34.4932 161.112 33.5068 160.427 33.1258L154.486 29.8254Z" fill="url(#paint1_linear_1_1047)"/>
<path fill-rule="evenodd" clip-rule="evenodd" d="M158.16 58.2L175.68 86.4H193.2L183.24 70.92L173.28 55.44C183.12 51.24 189 42.36 189 30.12C189 12.72 177 1.2 158.88 1.2H129V86.4H145.44V58.2H158.16ZM141.679 20.4C141.679 18.0804 143.559 16.2 145.879 16.2H147.832L151.617 22.687H141.679V20.4ZM153.469 22.687L149.685 16.2H158.615L162.399 22.687H153.469ZM164.251 22.687L160.467 16.2H166.879C169.199 16.2 171.079 18.0804 171.079 20.4V22.687H164.251ZM141.679 24.287H171.079V40.8336C171.079 43.1176 169.254 44.983 166.97 45.0326L145.97 45.4891C143.615 45.5403 141.679 43.6455 141.679 41.2901V24.287Z" fill="url(#paint2_linear_1_1047)"/>
<path fill-rule="evenodd" clip-rule="evenodd" d="M194.555 55.2C194.555 75.96 209.915 87.6 227.075 87.6C238.115 87.6 247.115 83.04 252.275 76.56L244.955 68.76C240.395 72.72 234.995 74.4 228.875 74.4C219.515 74.4 212.075 69.96 209.795 61.44H256.475C259.955 33.96 241.955 22.8 226.115 22.8C210.155 22.8 194.555 34.2 194.555 55.2ZM242.195 49.68H209.555C211.595 40.68 218.795 36.36 226.235 36.36C233.795 36.36 241.235 40.8 242.195 49.68Z" fill="url(#paint3_linear_1_1047)"/>
<path fill-rule="evenodd" clip-rule="evenodd" d="M295.629 87.6C278.469 87.6 263.109 75.96 263.109 55.2C263.109 34.2 278.709 22.8 294.669 22.8C310.509 22.8 328.509 33.96 325.029 61.44H278.349C280.629 69.96 288.069 74.4 297.429 74.4C303.549 74.4 308.949 72.72 313.509 68.76L320.829 76.56C315.669 83.04 306.669 87.6 295.629 87.6ZM278.109 49.68H310.749C309.789 40.8 302.349 36.36 294.789 36.36C287.349 36.36 280.149 40.68 278.109 49.68Z" fill="url(#paint4_linear_1_1047)"/>
<path d="M334.664 1.2V86.4H350.744V1.2H334.664Z" fill="url(#paint5_linear_1_1047)"/>
<path d="M476.486 24H460.406V86.4H476.486V52.32C476.486 43.2 481.526 37.2 489.806 37.2C498.206 37.2 503.126 43.2 503.126 52.32V86.4H519.206V49.68C519.206 30.72 508.406 22.8 495.566 22.8C486.206 22.8 479.966 27 476.486 32.52V24Z" fill="url(#paint6_linear_1_1047)"/>
<path d="M573.902 87.6C550.262 87.6 530.222 70.32 530.222 43.8C530.222 17.28 550.382 0 574.382 0C585.782 0 599.822 4.08 608.822 18.48L596.942 26.76C591.302 18.84 583.262 15.6 574.622 15.6C559.382 15.6 547.022 26.28 547.022 43.8C547.022 61.2 559.142 72.48 574.622 72.48C585.062 72.48 594.542 67.56 597.062 54.36H576.662V40.56H613.022C616.862 70.08 597.422 87.6 573.902 87.6Z" fill="url(#paint7_linear_1_1047)"/>
<path d="M120 33H28L36.558 27H120V33Z" fill="url(#paint8_linear_1_1047)"/>
<path d="M120 46H0L8.33478 40H120V46Z" fill="url(#paint9_linear_1_1047)"/>
<path d="M116 60H53L61.6559 53H116V60Z" fill="url(#paint10_linear_1_1047)"/>
<path fill-rule="evenodd" clip-rule="evenodd" d="M622 55.4C622 76.52 638.56 87.8 654.88 87.8C671.08 87.8 687.76 76.52 687.76 55.4C687.76 34.28 671.08 23 654.88 23C638.56 23 622 34.28 622 55.4ZM654.88 73.28C645.88 73.28 637.84 66.56 637.84 55.4C637.84 44.24 645.88 37.52 654.88 37.52C663.88 37.52 671.8 44.24 671.8 55.4C671.8 66.56 663.88 73.28 654.88 73.28Z" fill="url(#paint11_linear_1_1047)"/>
<defs>
<linearGradient id="paint0_linear_1_1047" x1="0" y1="43.9" x2="687.76" y2="43.9" gradientUnits="userSpaceOnUse">
<stop stop-color="#FF9B04"/>
<stop offset="0.265" stop-color="#FE4C2B"/>
<stop offset="0.445" stop-color="#FB3593"/>
<stop offset="0.725" stop-color="#BE37B5"/>
<stop offset="1" stop-color="#8638C6"/>
</linearGradient>
<linearGradient id="paint1_linear_1_1047" x1="0" y1="43.9" x2="687.76" y2="43.9" gradientUnits="userSpaceOnUse">
<stop stop-color="#FF9B04"/>
<stop offset="0.265" stop-color="#FE4C2B"/>
<stop offset="0.445" stop-color="#FB3593"/>
<stop offset="0.725" stop-color="#BE37B5"/>
<stop offset="1" stop-color="#8638C6"/>
</linearGradient>
<linearGradient id="paint2_linear_1_1047" x1="0" y1="43.9" x2="687.76" y2="43.9" gradientUnits="userSpaceOnUse">
<stop stop-color="#FF9B04"/>
<stop offset="0.265" stop-color="#FE4C2B"/>
<stop offset="0.445" stop-color="#FB3593"/>
<stop offset="0.725" stop-color="#BE37B5"/>
<stop offset="1" stop-color="#8638C6"/>
</linearGradient>
<linearGradient id="paint3_linear_1_1047" x1="0" y1="43.9" x2="687.76" y2="43.9" gradientUnits="userSpaceOnUse">
<stop stop-color="#FF9B04"/>
<stop offset="0.265" stop-color="#FE4C2B"/>
<stop offset="0.445" stop-color="#FB3593"/>
<stop offset="0.725" stop-color="#BE37B5"/>
<stop offset="1" stop-color="#8638C6"/>
</linearGradient>
<linearGradient id="paint4_linear_1_1047" x1="0" y1="43.9" x2="687.76" y2="43.9" gradientUnits="userSpaceOnUse">
<stop stop-color="#FF9B04"/>
<stop offset="0.265" stop-color="#FE4C2B"/>
<stop offset="0.445" stop-color="#FB3593"/>
<stop offset="0.725" stop-color="#BE37B5"/>
<stop offset="1" stop-color="#8638C6"/>
</linearGradient>
<linearGradient id="paint5_linear_1_1047" x1="0" y1="43.9" x2="687.76" y2="43.9" gradientUnits="userSpaceOnUse">
<stop stop-color="#FF9B04"/>
<stop offset="0.265" stop-color="#FE4C2B"/>
<stop offset="0.445" stop-color="#FB3593"/>
<stop offset="0.725" stop-color="#BE37B5"/>
<stop offset="1" stop-color="#8638C6"/>
</linearGradient>
<linearGradient id="paint6_linear_1_1047" x1="0" y1="43.9" x2="687.76" y2="43.9" gradientUnits="userSpaceOnUse">
<stop stop-color="#FF9B04"/>
<stop offset="0.265" stop-color="#FE4C2B"/>
<stop offset="0.445" stop-color="#FB3593"/>
<stop offset="0.725" stop-color="#BE37B5"/>
<stop offset="1" stop-color="#8638C6"/>
</linearGradient>
<linearGradient id="paint7_linear_1_1047" x1="0" y1="43.9" x2="687.76" y2="43.9" gradientUnits="userSpaceOnUse">
<stop stop-color="#FF9B04"/>
<stop offset="0.265" stop-color="#FE4C2B"/>
<stop offset="0.445" stop-color="#FB3593"/>
<stop offset="0.725" stop-color="#BE37B5"/>
<stop offset="1" stop-color="#8638C6"/>
</linearGradient>
<linearGradient id="paint8_linear_1_1047" x1="0" y1="43.9" x2="687.76" y2="43.9" gradientUnits="userSpaceOnUse">
<stop stop-color="#FF9B04"/>
<stop offset="0.265" stop-color="#FE4C2B"/>
<stop offset="0.445" stop-color="#FB3593"/>
<stop offset="0.725" stop-color="#BE37B5"/>
<stop offset="1" stop-color="#8638C6"/>
</linearGradient>
<linearGradient id="paint9_linear_1_1047" x1="0" y1="43.9" x2="687.76" y2="43.9" gradientUnits="userSpaceOnUse">
<stop stop-color="#FF9B04"/>
<stop offset="0.265" stop-color="#FE4C2B"/>
<stop offset="0.445" stop-color="#FB3593"/>
<stop offset="0.725" stop-color="#BE37B5"/>
<stop offset="1" stop-color="#8638C6"/>
</linearGradient>
<linearGradient id="paint10_linear_1_1047" x1="0" y1="43.9" x2="687.76" y2="43.9" gradientUnits="userSpaceOnUse">
<stop stop-color="#FF9B04"/>
<stop offset="0.265" stop-color="#FE4C2B"/>
<stop offset="0.445" stop-color="#FB3593"/>
<stop offset="0.725" stop-color="#BE37B5"/>
<stop offset="1" stop-color="#8638C6"/>
</linearGradient>
<linearGradient id="paint11_linear_1_1047" x1="0" y1="43.9" x2="687.76" y2="43.9" gradientUnits="userSpaceOnUse">
<stop stop-color="#FF9B04"/>
<stop offset="0.265" stop-color="#FE4C2B"/>
<stop offset="0.445" stop-color="#FB3593"/>
<stop offset="0.725" stop-color="#BE37B5"/>
<stop offset="1" stop-color="#8638C6"/>
</linearGradient>
</defs>
</svg>
